<?xml version="1.0" encoding="utf-8"?>

<!DOCTYPE svg PUBLIC "-//W3C//DTD SVG 1.1//EN" "http://www.w3.org/Graphics/SVG/1.1/DTD/svg11.dtd">
<!-- Uploaded to: SVG Repo, www.svgrepo.com, Generator: SVG Repo Mixer Tools -->
<svg version="1.1" id="_x32_" xmlns="http://www.w3.org/2000/svg" xmlns:xlink="http://www.w3.org/1999/xlink" 
	 width="800px" height="800px" viewBox="0 0 512 512"  xml:space="preserve">
<style type="text/css">
<![CDATA[
	.st0{fill:#000000;}
]]>
</style>
<g>
	<path class="st0" d="M512,210.688c0-42.469-34.547-77.031-77.031-77.031c-39.375,0-71.906,29.063-76.469,67.922
		c-0.5,0.422-3.313,1.563-8.109,1.563H191.813c-29.469,0-36.188-2.906-39.594-9.047c-7.734-35.203-38.859-60.438-75.188-60.438
		C34.563,133.656,0,168.219,0,210.688C0,227.125,5.313,242.969,14.813,256C5.313,269.047,0,284.906,0,301.313
		c0,42.484,34.563,77.031,77.031,77.031c34.766,0,65.547-23.875,74.422-57.234c1.75-1.375,9.828-6.203,37.359-6.203
		c8.172,0,22.406-0.203,40.391-0.469c26.375-0.375,59.188-0.859,86.453-0.859c24.641,0,37.109,0.391,43.391,0.828
		c6.234,36.266,37.906,63.938,75.922,63.938c42.484,0,77.031-34.547,77.031-77.031c0-16.406-5.313-32.266-14.813-45.313
		C506.688,242.969,512,227.125,512,210.688z M490.859,301.313c0,30.875-25.016,55.891-55.891,55.891
		c-30.859,0-55.875-25.016-55.875-55.891c0-0.828,0.094-1.641,0.109-2.5c-3.578-2.438-8.031-4.344-13.703-5.047
		c-8.063-1.016-27.031-1.344-49.844-1.344c-45.641,0-106.719,1.344-126.844,1.344c-19.688,0-50.359,2.016-57.234,19.578
		c-5.516,25.078-27.828,43.859-54.547,43.859c-30.875,0-55.891-25.016-55.891-55.891c0-18.672,9.203-35.172,23.266-45.313
		c-14.063-10.125-23.266-26.625-23.266-45.313c0-30.859,25.016-55.891,55.891-55.891c27.516,0,50.313,19.906,54.969,46.078
		c9.469,21.391,29.953,23.406,59.813,23.406c30.219,0,143.469,0,158.578,0c8.172,0,25.172-2.016,28.953-18.703
		c2.594-28.484,26.5-50.781,55.625-50.781c30.875,0,55.891,25.031,55.891,55.891c0,18.688-9.203,35.188-23.266,45.313
		C481.656,266.141,490.859,282.641,490.859,301.313z"/>
</g>
</svg>